<mxfile host="app.diagrams.net" modified="2023-07-17T08:17:40.880Z" agent="Mozilla/5.0 (X11; Linux x86_64) AppleWebKit/537.36 (KHTML, like Gecko) Chrome/114.0.0.0 Safari/537.36" etag="EJhrWTybzeXGFee22b0r" version="21.5.1" type="github">
  <diagram name="第 1 页" id="x9uic1Vn4PrBI_7JaZSe">
    <mxGraphModel dx="794" dy="527" grid="1" gridSize="10" guides="1" tooltips="1" connect="1" arrows="1" fold="1" page="1" pageScale="1" pageWidth="827" pageHeight="1169" math="0" shadow="0">
      <root>
        <mxCell id="0" />
        <mxCell id="1" parent="0" />
        <mxCell id="4FV3pSUxjZ8NIMlJNeZG-3" value="" style="shape=table;html=1;whiteSpace=wrap;startSize=0;container=1;collapsible=0;childLayout=tableLayout;strokeWidth=2;" vertex="1" parent="1">
          <mxGeometry x="190" y="220" width="720" height="210" as="geometry" />
        </mxCell>
        <mxCell id="4FV3pSUxjZ8NIMlJNeZG-7" value="" style="shape=tableRow;horizontal=0;startSize=0;swimlaneHead=0;swimlaneBody=0;top=0;left=0;bottom=0;right=0;collapsible=0;dropTarget=0;fillColor=none;points=[[0,0.5],[1,0.5]];portConstraint=eastwest;" vertex="1" parent="4FV3pSUxjZ8NIMlJNeZG-3">
          <mxGeometry width="720" height="26" as="geometry" />
        </mxCell>
        <mxCell id="4FV3pSUxjZ8NIMlJNeZG-8" value="J" style="shape=partialRectangle;html=1;whiteSpace=wrap;connectable=0;fillColor=none;top=0;left=0;bottom=0;right=0;overflow=hidden;" vertex="1" parent="4FV3pSUxjZ8NIMlJNeZG-7">
          <mxGeometry width="90" height="26" as="geometry">
            <mxRectangle width="90" height="26" as="alternateBounds" />
          </mxGeometry>
        </mxCell>
        <mxCell id="4FV3pSUxjZ8NIMlJNeZG-9" value="1" style="shape=partialRectangle;html=1;whiteSpace=wrap;connectable=0;fillColor=none;top=0;left=0;bottom=0;right=0;overflow=hidden;" vertex="1" parent="4FV3pSUxjZ8NIMlJNeZG-7">
          <mxGeometry x="90" width="90" height="26" as="geometry">
            <mxRectangle width="90" height="26" as="alternateBounds" />
          </mxGeometry>
        </mxCell>
        <mxCell id="4FV3pSUxjZ8NIMlJNeZG-13" value="2" style="shape=partialRectangle;html=1;whiteSpace=wrap;connectable=0;fillColor=none;top=0;left=0;bottom=0;right=0;overflow=hidden;" vertex="1" parent="4FV3pSUxjZ8NIMlJNeZG-7">
          <mxGeometry x="180" width="90" height="26" as="geometry">
            <mxRectangle width="90" height="26" as="alternateBounds" />
          </mxGeometry>
        </mxCell>
        <mxCell id="4FV3pSUxjZ8NIMlJNeZG-15" value="3" style="shape=partialRectangle;html=1;whiteSpace=wrap;connectable=0;fillColor=none;top=0;left=0;bottom=0;right=0;overflow=hidden;" vertex="1" parent="4FV3pSUxjZ8NIMlJNeZG-7">
          <mxGeometry x="270" width="100" height="26" as="geometry">
            <mxRectangle width="100" height="26" as="alternateBounds" />
          </mxGeometry>
        </mxCell>
        <mxCell id="4FV3pSUxjZ8NIMlJNeZG-17" value="4" style="shape=partialRectangle;html=1;whiteSpace=wrap;connectable=0;fillColor=none;top=0;left=0;bottom=0;right=0;overflow=hidden;" vertex="1" parent="4FV3pSUxjZ8NIMlJNeZG-7">
          <mxGeometry x="370" width="100" height="26" as="geometry">
            <mxRectangle width="100" height="26" as="alternateBounds" />
          </mxGeometry>
        </mxCell>
        <mxCell id="4FV3pSUxjZ8NIMlJNeZG-19" value="5" style="shape=partialRectangle;html=1;whiteSpace=wrap;connectable=0;fillColor=none;top=0;left=0;bottom=0;right=0;overflow=hidden;" vertex="1" parent="4FV3pSUxjZ8NIMlJNeZG-7">
          <mxGeometry x="470" width="100" height="26" as="geometry">
            <mxRectangle width="100" height="26" as="alternateBounds" />
          </mxGeometry>
        </mxCell>
        <mxCell id="4FV3pSUxjZ8NIMlJNeZG-21" value="6" style="shape=partialRectangle;html=1;whiteSpace=wrap;connectable=0;fillColor=none;top=0;left=0;bottom=0;right=0;overflow=hidden;" vertex="1" parent="4FV3pSUxjZ8NIMlJNeZG-7">
          <mxGeometry x="570" width="80" height="26" as="geometry">
            <mxRectangle width="80" height="26" as="alternateBounds" />
          </mxGeometry>
        </mxCell>
        <mxCell id="4FV3pSUxjZ8NIMlJNeZG-23" value="7" style="shape=partialRectangle;html=1;whiteSpace=wrap;connectable=0;fillColor=none;top=0;left=0;bottom=0;right=0;overflow=hidden;" vertex="1" parent="4FV3pSUxjZ8NIMlJNeZG-7">
          <mxGeometry x="650" width="70" height="26" as="geometry">
            <mxRectangle width="70" height="26" as="alternateBounds" />
          </mxGeometry>
        </mxCell>
        <mxCell id="4FV3pSUxjZ8NIMlJNeZG-10" value="" style="shape=tableRow;horizontal=0;startSize=0;swimlaneHead=0;swimlaneBody=0;top=0;left=0;bottom=0;right=0;collapsible=0;dropTarget=0;fillColor=none;points=[[0,0.5],[1,0.5]];portConstraint=eastwest;" vertex="1" parent="4FV3pSUxjZ8NIMlJNeZG-3">
          <mxGeometry y="26" width="720" height="27" as="geometry" />
        </mxCell>
        <mxCell id="4FV3pSUxjZ8NIMlJNeZG-11" value="数组 arr" style="shape=partialRectangle;html=1;whiteSpace=wrap;connectable=0;fillColor=none;top=0;left=0;bottom=0;right=0;overflow=hidden;" vertex="1" parent="4FV3pSUxjZ8NIMlJNeZG-10">
          <mxGeometry width="90" height="27" as="geometry">
            <mxRectangle width="90" height="27" as="alternateBounds" />
          </mxGeometry>
        </mxCell>
        <mxCell id="4FV3pSUxjZ8NIMlJNeZG-12" value="a" style="shape=partialRectangle;html=1;whiteSpace=wrap;connectable=0;fillColor=none;top=0;left=0;bottom=0;right=0;overflow=hidden;strokeColor=default;strokeWidth=2;shadow=0;" vertex="1" parent="4FV3pSUxjZ8NIMlJNeZG-10">
          <mxGeometry x="90" width="90" height="27" as="geometry">
            <mxRectangle width="90" height="27" as="alternateBounds" />
          </mxGeometry>
        </mxCell>
        <mxCell id="4FV3pSUxjZ8NIMlJNeZG-14" value="b" style="shape=partialRectangle;html=1;whiteSpace=wrap;connectable=0;fillColor=none;top=0;left=0;bottom=0;right=0;overflow=hidden;strokeColor=default;strokeWidth=2;shadow=0;" vertex="1" parent="4FV3pSUxjZ8NIMlJNeZG-10">
          <mxGeometry x="180" width="90" height="27" as="geometry">
            <mxRectangle width="90" height="27" as="alternateBounds" />
          </mxGeometry>
        </mxCell>
        <mxCell id="4FV3pSUxjZ8NIMlJNeZG-16" value="a" style="shape=partialRectangle;html=1;whiteSpace=wrap;connectable=0;fillColor=none;top=0;left=0;bottom=0;right=0;overflow=hidden;strokeColor=default;strokeWidth=2;shadow=0;" vertex="1" parent="4FV3pSUxjZ8NIMlJNeZG-10">
          <mxGeometry x="270" width="100" height="27" as="geometry">
            <mxRectangle width="100" height="27" as="alternateBounds" />
          </mxGeometry>
        </mxCell>
        <mxCell id="4FV3pSUxjZ8NIMlJNeZG-18" value="b" style="shape=partialRectangle;html=1;whiteSpace=wrap;connectable=0;fillColor=none;top=0;left=0;bottom=0;right=0;overflow=hidden;strokeColor=#d6b656;" vertex="1" parent="4FV3pSUxjZ8NIMlJNeZG-10">
          <mxGeometry x="370" width="100" height="27" as="geometry">
            <mxRectangle width="100" height="27" as="alternateBounds" />
          </mxGeometry>
        </mxCell>
        <mxCell id="4FV3pSUxjZ8NIMlJNeZG-20" value="a" style="shape=partialRectangle;html=1;whiteSpace=wrap;connectable=0;fillColor=none;top=0;left=0;bottom=0;right=0;overflow=hidden;strokeColor=#d6b656;" vertex="1" parent="4FV3pSUxjZ8NIMlJNeZG-10">
          <mxGeometry x="470" width="100" height="27" as="geometry">
            <mxRectangle width="100" height="27" as="alternateBounds" />
          </mxGeometry>
        </mxCell>
        <mxCell id="4FV3pSUxjZ8NIMlJNeZG-22" value="a" style="shape=partialRectangle;html=1;whiteSpace=wrap;connectable=0;fillColor=none;top=0;left=0;bottom=0;right=0;overflow=hidden;" vertex="1" parent="4FV3pSUxjZ8NIMlJNeZG-10">
          <mxGeometry x="570" width="80" height="27" as="geometry">
            <mxRectangle width="80" height="27" as="alternateBounds" />
          </mxGeometry>
        </mxCell>
        <mxCell id="4FV3pSUxjZ8NIMlJNeZG-24" value="b" style="shape=partialRectangle;html=1;whiteSpace=wrap;connectable=0;fillColor=none;top=0;left=0;bottom=0;right=0;overflow=hidden;" vertex="1" parent="4FV3pSUxjZ8NIMlJNeZG-10">
          <mxGeometry x="650" width="70" height="27" as="geometry">
            <mxRectangle width="70" height="27" as="alternateBounds" />
          </mxGeometry>
        </mxCell>
        <mxCell id="4FV3pSUxjZ8NIMlJNeZG-25" style="shape=tableRow;horizontal=0;startSize=0;swimlaneHead=0;swimlaneBody=0;top=0;left=0;bottom=0;right=0;collapsible=0;dropTarget=0;fillColor=none;points=[[0,0.5],[1,0.5]];portConstraint=eastwest;" vertex="1" parent="4FV3pSUxjZ8NIMlJNeZG-3">
          <mxGeometry y="53" width="720" height="27" as="geometry" />
        </mxCell>
        <mxCell id="4FV3pSUxjZ8NIMlJNeZG-26" value="next" style="shape=partialRectangle;html=1;whiteSpace=wrap;connectable=0;fillColor=none;top=0;left=0;bottom=0;right=0;overflow=hidden;" vertex="1" parent="4FV3pSUxjZ8NIMlJNeZG-25">
          <mxGeometry width="90" height="27" as="geometry">
            <mxRectangle width="90" height="27" as="alternateBounds" />
          </mxGeometry>
        </mxCell>
        <mxCell id="4FV3pSUxjZ8NIMlJNeZG-27" value="0" style="shape=partialRectangle;html=1;whiteSpace=wrap;connectable=0;fillColor=none;top=0;left=0;bottom=0;right=0;overflow=hidden;" vertex="1" parent="4FV3pSUxjZ8NIMlJNeZG-25">
          <mxGeometry x="90" width="90" height="27" as="geometry">
            <mxRectangle width="90" height="27" as="alternateBounds" />
          </mxGeometry>
        </mxCell>
        <mxCell id="4FV3pSUxjZ8NIMlJNeZG-28" value="1" style="shape=partialRectangle;html=1;whiteSpace=wrap;connectable=0;fillColor=none;top=0;left=0;bottom=0;right=0;overflow=hidden;" vertex="1" parent="4FV3pSUxjZ8NIMlJNeZG-25">
          <mxGeometry x="180" width="90" height="27" as="geometry">
            <mxRectangle width="90" height="27" as="alternateBounds" />
          </mxGeometry>
        </mxCell>
        <mxCell id="4FV3pSUxjZ8NIMlJNeZG-29" value="1" style="shape=partialRectangle;html=1;whiteSpace=wrap;connectable=0;fillColor=none;top=0;left=0;bottom=0;right=0;overflow=hidden;" vertex="1" parent="4FV3pSUxjZ8NIMlJNeZG-25">
          <mxGeometry x="270" width="100" height="27" as="geometry">
            <mxRectangle width="100" height="27" as="alternateBounds" />
          </mxGeometry>
        </mxCell>
        <mxCell id="4FV3pSUxjZ8NIMlJNeZG-30" value="2" style="shape=partialRectangle;html=1;whiteSpace=wrap;connectable=0;fillColor=none;top=0;left=0;bottom=0;right=0;overflow=hidden;" vertex="1" parent="4FV3pSUxjZ8NIMlJNeZG-25">
          <mxGeometry x="370" width="100" height="27" as="geometry">
            <mxRectangle width="100" height="27" as="alternateBounds" />
          </mxGeometry>
        </mxCell>
        <mxCell id="4FV3pSUxjZ8NIMlJNeZG-31" value="3" style="shape=partialRectangle;html=1;whiteSpace=wrap;connectable=0;fillColor=none;top=0;left=0;bottom=0;right=0;overflow=hidden;" vertex="1" parent="4FV3pSUxjZ8NIMlJNeZG-25">
          <mxGeometry x="470" width="100" height="27" as="geometry">
            <mxRectangle width="100" height="27" as="alternateBounds" />
          </mxGeometry>
        </mxCell>
        <mxCell id="4FV3pSUxjZ8NIMlJNeZG-32" value="4" style="shape=partialRectangle;html=1;whiteSpace=wrap;connectable=0;fillColor=none;top=0;left=0;bottom=0;right=0;overflow=hidden;" vertex="1" parent="4FV3pSUxjZ8NIMlJNeZG-25">
          <mxGeometry x="570" width="80" height="27" as="geometry">
            <mxRectangle width="80" height="27" as="alternateBounds" />
          </mxGeometry>
        </mxCell>
        <mxCell id="4FV3pSUxjZ8NIMlJNeZG-33" style="shape=partialRectangle;html=1;whiteSpace=wrap;connectable=0;fillColor=none;top=0;left=0;bottom=0;right=0;overflow=hidden;" vertex="1" parent="4FV3pSUxjZ8NIMlJNeZG-25">
          <mxGeometry x="650" width="70" height="27" as="geometry">
            <mxRectangle width="70" height="27" as="alternateBounds" />
          </mxGeometry>
        </mxCell>
        <mxCell id="4FV3pSUxjZ8NIMlJNeZG-34" style="shape=tableRow;horizontal=0;startSize=0;swimlaneHead=0;swimlaneBody=0;top=0;left=0;bottom=0;right=0;collapsible=0;dropTarget=0;fillColor=none;points=[[0,0.5],[1,0.5]];portConstraint=eastwest;" vertex="1" parent="4FV3pSUxjZ8NIMlJNeZG-3">
          <mxGeometry y="80" width="720" height="50" as="geometry" />
        </mxCell>
        <mxCell id="4FV3pSUxjZ8NIMlJNeZG-35" value="解释" style="shape=partialRectangle;html=1;whiteSpace=wrap;connectable=0;fillColor=none;top=0;left=0;bottom=0;right=0;overflow=hidden;" vertex="1" parent="4FV3pSUxjZ8NIMlJNeZG-34">
          <mxGeometry width="90" height="50" as="geometry">
            <mxRectangle width="90" height="50" as="alternateBounds" />
          </mxGeometry>
        </mxCell>
        <mxCell id="4FV3pSUxjZ8NIMlJNeZG-36" value="初始值" style="shape=partialRectangle;html=1;whiteSpace=wrap;connectable=0;fillColor=none;top=0;left=0;bottom=0;right=0;overflow=hidden;" vertex="1" parent="4FV3pSUxjZ8NIMlJNeZG-34">
          <mxGeometry x="90" width="90" height="50" as="geometry">
            <mxRectangle width="90" height="50" as="alternateBounds" />
          </mxGeometry>
        </mxCell>
        <mxCell id="4FV3pSUxjZ8NIMlJNeZG-37" value="初始值" style="shape=partialRectangle;html=1;whiteSpace=wrap;connectable=0;fillColor=none;top=0;left=0;bottom=0;right=0;overflow=hidden;" vertex="1" parent="4FV3pSUxjZ8NIMlJNeZG-34">
          <mxGeometry x="180" width="90" height="50" as="geometry">
            <mxRectangle width="90" height="50" as="alternateBounds" />
          </mxGeometry>
        </mxCell>
        <mxCell id="4FV3pSUxjZ8NIMlJNeZG-38" value="没有&lt;br&gt;:=0+1" style="shape=partialRectangle;html=1;whiteSpace=wrap;connectable=0;fillColor=none;top=0;left=0;bottom=0;right=0;overflow=hidden;" vertex="1" parent="4FV3pSUxjZ8NIMlJNeZG-34">
          <mxGeometry x="270" width="100" height="50" as="geometry">
            <mxRectangle width="100" height="50" as="alternateBounds" />
          </mxGeometry>
        </mxCell>
        <mxCell id="4FV3pSUxjZ8NIMlJNeZG-39" value="a=a&lt;br&gt;:=1+1" style="shape=partialRectangle;html=1;whiteSpace=wrap;connectable=0;fillColor=none;top=0;left=0;bottom=0;right=0;overflow=hidden;" vertex="1" parent="4FV3pSUxjZ8NIMlJNeZG-34">
          <mxGeometry x="370" width="100" height="50" as="geometry">
            <mxRectangle width="100" height="50" as="alternateBounds" />
          </mxGeometry>
        </mxCell>
        <mxCell id="4FV3pSUxjZ8NIMlJNeZG-40" value="ab=ab&lt;br&gt;:=2+1" style="shape=partialRectangle;html=1;whiteSpace=wrap;connectable=0;fillColor=none;top=0;left=0;bottom=0;right=0;overflow=hidden;" vertex="1" parent="4FV3pSUxjZ8NIMlJNeZG-34">
          <mxGeometry x="470" width="100" height="50" as="geometry">
            <mxRectangle width="100" height="50" as="alternateBounds" />
          </mxGeometry>
        </mxCell>
        <mxCell id="4FV3pSUxjZ8NIMlJNeZG-41" value="aba=aba&lt;br&gt;:=3+1" style="shape=partialRectangle;html=1;whiteSpace=wrap;connectable=0;fillColor=none;top=0;left=0;bottom=0;right=0;overflow=hidden;" vertex="1" parent="4FV3pSUxjZ8NIMlJNeZG-34">
          <mxGeometry x="570" width="80" height="50" as="geometry">
            <mxRectangle width="80" height="50" as="alternateBounds" />
          </mxGeometry>
        </mxCell>
        <mxCell id="4FV3pSUxjZ8NIMlJNeZG-42" style="shape=partialRectangle;html=1;whiteSpace=wrap;connectable=0;fillColor=none;top=0;left=0;bottom=0;right=0;overflow=hidden;" vertex="1" parent="4FV3pSUxjZ8NIMlJNeZG-34">
          <mxGeometry x="650" width="70" height="50" as="geometry">
            <mxRectangle width="70" height="50" as="alternateBounds" />
          </mxGeometry>
        </mxCell>
        <mxCell id="4FV3pSUxjZ8NIMlJNeZG-43" style="shape=tableRow;horizontal=0;startSize=0;swimlaneHead=0;swimlaneBody=0;top=0;left=0;bottom=0;right=0;collapsible=0;dropTarget=0;fillColor=none;points=[[0,0.5],[1,0.5]];portConstraint=eastwest;" vertex="1" parent="4FV3pSUxjZ8NIMlJNeZG-3">
          <mxGeometry y="130" width="720" height="30" as="geometry" />
        </mxCell>
        <mxCell id="4FV3pSUxjZ8NIMlJNeZG-44" value="nextval" style="shape=partialRectangle;html=1;whiteSpace=wrap;connectable=0;fillColor=none;top=0;left=0;bottom=0;right=0;overflow=hidden;" vertex="1" parent="4FV3pSUxjZ8NIMlJNeZG-43">
          <mxGeometry width="90" height="30" as="geometry">
            <mxRectangle width="90" height="30" as="alternateBounds" />
          </mxGeometry>
        </mxCell>
        <mxCell id="4FV3pSUxjZ8NIMlJNeZG-45" value="0" style="shape=partialRectangle;html=1;whiteSpace=wrap;connectable=0;fillColor=none;top=0;left=0;bottom=0;right=0;overflow=hidden;" vertex="1" parent="4FV3pSUxjZ8NIMlJNeZG-43">
          <mxGeometry x="90" width="90" height="30" as="geometry">
            <mxRectangle width="90" height="30" as="alternateBounds" />
          </mxGeometry>
        </mxCell>
        <mxCell id="4FV3pSUxjZ8NIMlJNeZG-46" value="1" style="shape=partialRectangle;html=1;whiteSpace=wrap;connectable=0;fillColor=none;top=0;left=0;bottom=0;right=0;overflow=hidden;" vertex="1" parent="4FV3pSUxjZ8NIMlJNeZG-43">
          <mxGeometry x="180" width="90" height="30" as="geometry">
            <mxRectangle width="90" height="30" as="alternateBounds" />
          </mxGeometry>
        </mxCell>
        <mxCell id="4FV3pSUxjZ8NIMlJNeZG-47" value="0" style="shape=partialRectangle;html=1;whiteSpace=wrap;connectable=0;fillColor=none;top=0;left=0;bottom=0;right=0;overflow=hidden;" vertex="1" parent="4FV3pSUxjZ8NIMlJNeZG-43">
          <mxGeometry x="270" width="100" height="30" as="geometry">
            <mxRectangle width="100" height="30" as="alternateBounds" />
          </mxGeometry>
        </mxCell>
        <mxCell id="4FV3pSUxjZ8NIMlJNeZG-48" value="1" style="shape=partialRectangle;html=1;whiteSpace=wrap;connectable=0;fillColor=none;top=0;left=0;bottom=0;right=0;overflow=hidden;" vertex="1" parent="4FV3pSUxjZ8NIMlJNeZG-43">
          <mxGeometry x="370" width="100" height="30" as="geometry">
            <mxRectangle width="100" height="30" as="alternateBounds" />
          </mxGeometry>
        </mxCell>
        <mxCell id="4FV3pSUxjZ8NIMlJNeZG-49" value="0" style="shape=partialRectangle;html=1;whiteSpace=wrap;connectable=0;fillColor=none;top=0;left=0;bottom=0;right=0;overflow=hidden;" vertex="1" parent="4FV3pSUxjZ8NIMlJNeZG-43">
          <mxGeometry x="470" width="100" height="30" as="geometry">
            <mxRectangle width="100" height="30" as="alternateBounds" />
          </mxGeometry>
        </mxCell>
        <mxCell id="4FV3pSUxjZ8NIMlJNeZG-50" value="4" style="shape=partialRectangle;html=1;whiteSpace=wrap;connectable=0;fillColor=none;top=0;left=0;bottom=0;right=0;overflow=hidden;" vertex="1" parent="4FV3pSUxjZ8NIMlJNeZG-43">
          <mxGeometry x="570" width="80" height="30" as="geometry">
            <mxRectangle width="80" height="30" as="alternateBounds" />
          </mxGeometry>
        </mxCell>
        <mxCell id="4FV3pSUxjZ8NIMlJNeZG-51" style="shape=partialRectangle;html=1;whiteSpace=wrap;connectable=0;fillColor=none;top=0;left=0;bottom=0;right=0;overflow=hidden;" vertex="1" parent="4FV3pSUxjZ8NIMlJNeZG-43">
          <mxGeometry x="650" width="70" height="30" as="geometry">
            <mxRectangle width="70" height="30" as="alternateBounds" />
          </mxGeometry>
        </mxCell>
        <mxCell id="4FV3pSUxjZ8NIMlJNeZG-52" style="shape=tableRow;horizontal=0;startSize=0;swimlaneHead=0;swimlaneBody=0;top=0;left=0;bottom=0;right=0;collapsible=0;dropTarget=0;fillColor=none;points=[[0,0.5],[1,0.5]];portConstraint=eastwest;" vertex="1" parent="4FV3pSUxjZ8NIMlJNeZG-3">
          <mxGeometry y="160" width="720" height="50" as="geometry" />
        </mxCell>
        <mxCell id="4FV3pSUxjZ8NIMlJNeZG-53" value="解释" style="shape=partialRectangle;html=1;whiteSpace=wrap;connectable=0;fillColor=none;top=0;left=0;bottom=0;right=0;overflow=hidden;" vertex="1" parent="4FV3pSUxjZ8NIMlJNeZG-52">
          <mxGeometry width="90" height="50" as="geometry">
            <mxRectangle width="90" height="50" as="alternateBounds" />
          </mxGeometry>
        </mxCell>
        <mxCell id="4FV3pSUxjZ8NIMlJNeZG-54" value="0" style="shape=partialRectangle;html=1;whiteSpace=wrap;connectable=0;fillColor=none;top=0;left=0;bottom=0;right=0;overflow=hidden;" vertex="1" parent="4FV3pSUxjZ8NIMlJNeZG-52">
          <mxGeometry x="90" width="90" height="50" as="geometry">
            <mxRectangle width="90" height="50" as="alternateBounds" />
          </mxGeometry>
        </mxCell>
        <mxCell id="4FV3pSUxjZ8NIMlJNeZG-55" value="arr[next]=a != b&lt;br&gt;落下来" style="shape=partialRectangle;html=1;whiteSpace=wrap;connectable=0;fillColor=none;top=0;left=0;bottom=0;right=0;overflow=hidden;" vertex="1" parent="4FV3pSUxjZ8NIMlJNeZG-52">
          <mxGeometry x="180" width="90" height="50" as="geometry">
            <mxRectangle width="90" height="50" as="alternateBounds" />
          </mxGeometry>
        </mxCell>
        <mxCell id="4FV3pSUxjZ8NIMlJNeZG-56" value="arr[next] = a == a用上次的&lt;br&gt;:=0" style="shape=partialRectangle;html=1;whiteSpace=wrap;connectable=0;fillColor=none;top=0;left=0;bottom=0;right=0;overflow=hidden;" vertex="1" parent="4FV3pSUxjZ8NIMlJNeZG-52">
          <mxGeometry x="270" width="100" height="50" as="geometry">
            <mxRectangle width="100" height="50" as="alternateBounds" />
          </mxGeometry>
        </mxCell>
        <mxCell id="4FV3pSUxjZ8NIMlJNeZG-57" value="arr[next] = b == b用上次的&lt;br style=&quot;border-color: var(--border-color);&quot;&gt;:=1" style="shape=partialRectangle;html=1;whiteSpace=wrap;connectable=0;fillColor=none;top=0;left=0;bottom=0;right=0;overflow=hidden;" vertex="1" parent="4FV3pSUxjZ8NIMlJNeZG-52">
          <mxGeometry x="370" width="100" height="50" as="geometry">
            <mxRectangle width="100" height="50" as="alternateBounds" />
          </mxGeometry>
        </mxCell>
        <mxCell id="4FV3pSUxjZ8NIMlJNeZG-58" value="arr[next] = a == a用上次的&lt;br style=&quot;border-color: var(--border-color);&quot;&gt;:=0" style="shape=partialRectangle;html=1;whiteSpace=wrap;connectable=0;fillColor=none;top=0;left=0;bottom=0;right=0;overflow=hidden;" vertex="1" parent="4FV3pSUxjZ8NIMlJNeZG-52">
          <mxGeometry x="470" width="100" height="50" as="geometry">
            <mxRectangle width="100" height="50" as="alternateBounds" />
          </mxGeometry>
        </mxCell>
        <mxCell id="4FV3pSUxjZ8NIMlJNeZG-59" value="不同，落下来" style="shape=partialRectangle;html=1;whiteSpace=wrap;connectable=0;fillColor=none;top=0;left=0;bottom=0;right=0;overflow=hidden;" vertex="1" parent="4FV3pSUxjZ8NIMlJNeZG-52">
          <mxGeometry x="570" width="80" height="50" as="geometry">
            <mxRectangle width="80" height="50" as="alternateBounds" />
          </mxGeometry>
        </mxCell>
        <mxCell id="4FV3pSUxjZ8NIMlJNeZG-60" style="shape=partialRectangle;html=1;whiteSpace=wrap;connectable=0;fillColor=none;top=0;left=0;bottom=0;right=0;overflow=hidden;" vertex="1" parent="4FV3pSUxjZ8NIMlJNeZG-52">
          <mxGeometry x="650" width="70" height="50" as="geometry">
            <mxRectangle width="70" height="50" as="alternateBounds" />
          </mxGeometry>
        </mxCell>
      </root>
    </mxGraphModel>
  </diagram>
</mxfile>
